# xmcd CD database file
#
# Track frame offsets:
#	150
#	31290
#	61770
#	77767
#	110897
#	139685
#
# Disc length: 2128 seconds
#
# Revision: 2
# Processed by: cddbd v1.5.1PL0 Copyright (c) Steve Scherf et al.
# Submitted via: CDex 1.51
#
DISCID=4a084e06
DTITLE=Lou Donaldson - Alligator Bogaloo
DYEAR=1967
DGENRE=Jazz
TTITLE0=Alligator Bogaloo
TTITLE1=One Cylinder
TTITLE2=The Thang
TTITLE3=Aw Shucks!
TTITLE4=Rev. Moses
TTITLE5=I Want A Little Girl
EXTD=YEAR: 1967
EXTT0=
EXTT1=
EXTT2=
EXTT3=
EXTT4=
EXTT5=
PLAYORDER=
